<svg width="52" height="52" viewBox="0 0 52 52" fill="none" xmlns="http://www.w3.org/2000/svg">
<path d="M51.5 16.1089V45.0695C51.4852 45.0695 51.4701 45.0696 51.4548 45.0696C51.0918 45.0708 50.5603 45.0804 49.8799 45.1135C48.5192 45.1797 46.5624 45.3402 44.1669 45.7169C39.4266 46.4622 32.9629 48.055 26 51.4434C19.0371 48.055 12.5734 46.4622 7.83314 45.7169C5.43761 45.3402 3.48079 45.1797 2.12011 45.1135C1.43971 45.0804 0.908204 45.0708 0.545244 45.0696C0.52986 45.0696 0.514778 45.0695 0.5 45.0695V16.1089C0.537092 16.1099 0.576148 16.1111 0.617135 16.1123C1.02251 16.1247 1.61664 16.1495 2.36729 16.1993C3.86886 16.2988 5.9952 16.4981 8.48871 16.8968C13.481 17.695 19.9199 19.2888 25.7612 22.4639L26 22.5937L26.2388 22.4639C32.0801 19.2888 38.519 17.695 43.5113 16.8968C46.0048 16.4981 48.1311 16.2988 49.6327 16.1993C50.3834 16.1495 50.9775 16.1247 51.3829 16.1123C51.4239 16.1111 51.4629 16.1099 51.5 16.1089Z" fill="#15E937" stroke="black"/>
<path d="M33.3 7.8C33.3 11.8317 30.0317 15.1 26 15.1C21.9683 15.1 18.7 11.8317 18.7 7.8C18.7 3.76832 21.9683 0.5 26 0.5C30.0317 0.5 33.3 3.76832 33.3 7.8Z" fill="#15E937" stroke="black"/>
</svg>
